<svg width="36" height="36" viewBox="0 0 36 36" fill="none" xmlns="http://www.w3.org/2000/svg" aria-hidden="true"><rect width="36" height="36" rx="10" fill="#19191C" fill-opacity="0.5"></rect><g filter="url(#filter0_d_11440_95002)"><path fill-rule="evenodd" clip-rule="evenodd" d="M29.4949 16.7542C29.3448 12.4148 25.8263 9 21.6089 9L14.492 9.0002C10.312 9.00021 6.70649 12.3209 6.50881 16.6617C6.29957 21.2601 9.84387 25.0642 14.2974 25.0642H19.3504V26.4843C19.3504 27.8156 20.8737 28.4717 21.8344 27.6133C23.1556 26.4331 25.8355 24.0335 26.9124 23.035C28.5683 21.4991 29.5813 19.2437 29.4949 16.7542ZM12.04 17.1429C12.04 16.231 12.785 15.5 13.6939 15.5C14.6028 15.5 15.3477 16.231 15.3477 17.1429C15.3477 18.0547 14.6028 18.7857 13.6939 18.7857C12.785 18.7857 12.04 18.0547 12.04 17.1429ZM16.3477 17.1429C16.3477 16.231 17.0926 15.5 18.0015 15.5C18.9104 15.5 19.6553 16.231 19.6553 17.1429C19.6553 18.0547 18.9104 18.7857 18.0015 18.7857C17.0926 18.7857 16.3477 18.0547 16.3477 17.1429ZM20.6553 17.1429C20.6553 16.231 21.4002 15.5 22.3091 15.5C23.218 15.5 23.963 16.231 23.963 17.1429C23.963 18.0547 23.218 18.7857 22.3091 18.7857C21.4002 18.7857 20.6553 18.0547 20.6553 17.1429Z" fill="white"></path></g><defs><filter id="filter0_d_11440_95002" x="-0.5" y="2" width="37" height="33" filterUnits="userSpaceOnUse" color-interpolation-filters="sRGB"><feFlood flood-opacity="0" result="BackgroundImageFix"></feFlood><feColorMatrix in="SourceAlpha" type="matrix" values="0 0 0 0 0 0 0 0 0 0 0 0 0 0 0 0 0 0 127 0" result="hardAlpha"></feColorMatrix><feOffset></feOffset><feGaussianBlur stdDeviation="3.5"></feGaussianBlur><feComposite in2="hardAlpha" operator="out"></feComposite><feColorMatrix type="matrix" values="0 0 0 0 0 0 0 0 0 0 0 0 0 0 0 0 0 0 0.4 0"></feColorMatrix><feBlend mode="normal" in2="BackgroundImageFix" result="effect1_dropShadow_11440_95002"></feBlend><feBlend mode="normal" in="SourceGraphic" in2="effect1_dropShadow_11440_95002" result="shape"></feBlend></filter></defs></svg>