<svg width="40" height="40" viewBox="0 0 40 40" fill="none" xmlns="http://www.w3.org/2000/svg"><path d="M30.3114 28.2916L30.42 19.7822C30.4256 19.3455 30.288 18.919 30.0285 18.5678L24.2333 10.7278C24.0633 10.4978 23.8029 10.35 23.5175 10.3323C17.7597 9.97679 12.0255 12.6335 9.43863 14.2741C9.16012 14.4507 9 14.7599 9 15.0897V24.7822C9 25.7495 9.69236 26.5782 10.6443 26.7503L28.3092 29.9428C29.3435 30.1297 30.2979 29.3426 30.3114 28.2916Z" stroke="currentColor" stroke-width="2"></path><ellipse cx="24.4903" cy="23.626" rx="2.21538" ry="1.84615" transform="rotate(19.0775 24.4903 23.626)" fill="currentColor"></ellipse><ellipse cx="20.4147" cy="13.3231" rx="1.9531" ry="0.820513" transform="rotate(-2.41725 20.4147 13.3231)" fill="currentColor"></ellipse><path fill-rule="evenodd" clip-rule="evenodd" d="M11.8467 15.7284C11.6966 15.8797 11.5792 16.0627 11.5066 16.2724C11.2183 17.1062 11.7488 18.0465 12.6917 18.3726C13.6345 18.6987 14.6326 18.2871 14.921 17.4532C15.0552 17.0652 15.0121 16.6542 14.8326 16.2927L11.8467 15.7284Z" fill="currentColor"></path><path fill-rule="evenodd" clip-rule="evenodd" d="M18.3467 27.4429L14.21 26.6369C14.5662 25.667 15.7388 25.1922 16.8472 25.5755C17.734 25.8822 18.3137 26.6463 18.3467 27.4429Z" fill="currentColor"></path><path d="M9 14.8716L30.4286 19.3001" stroke="currentColor" stroke-width="1.5"></path></svg>