<svg width="40" height="40" viewBox="0 0 40 40" fill="none" xmlns="http://www.w3.org/2000/svg"><path d="M32 18.1535V19.1535C32.5523 19.1535 33 18.7057 33 18.1535H32ZM32 21.8458H33C33 21.2935 32.5523 20.8458 32 20.8458V21.8458ZM8 21.8458V20.8458C7.44772 20.8458 7 21.2935 7 21.8458H8ZM8 18.1535H7C7 18.7057 7.44772 19.1535 8 19.1535V18.1535ZM9.76842 11.615C8.23946 11.615 7 12.8545 7 14.3834H9C9 13.959 9.34403 13.615 9.76842 13.615V11.615ZM30.2316 11.615H9.76842V13.615H30.2316V11.615ZM33 14.3834C33 12.8545 31.7605 11.615 30.2316 11.615V13.615C30.656 13.615 31 13.959 31 14.3834H33ZM33 18.1535V14.3834H31V18.1535H33ZM31.1538 19.9996C31.1538 19.5323 31.5327 19.1535 32 19.1535V17.1535C30.4281 17.1535 29.1538 18.4277 29.1538 19.9996H31.1538ZM32 20.8458C31.5327 20.8458 31.1538 20.4669 31.1538 19.9996H29.1538C29.1538 21.5715 30.4281 22.8458 32 22.8458V20.8458ZM33 25.6158V21.8458H31V25.6158H33ZM30.2316 28.3842C31.7605 28.3842 33 27.1448 33 25.6158H31C31 26.0402 30.656 26.3842 30.2316 26.3842V28.3842ZM9.76842 28.3842H30.2316V26.3842H9.76842V28.3842ZM7 25.6158C7 27.1448 8.23946 28.3842 9.76842 28.3842V26.3842C9.34403 26.3842 9 26.0402 9 25.6158H7ZM7 21.8458V25.6158H9V21.8458H7ZM8.84615 19.9996C8.84615 20.4669 8.46732 20.8458 8 20.8458V22.8458C9.57189 22.8458 10.8462 21.5715 10.8462 19.9996H8.84615ZM8 19.1535C8.46732 19.1535 8.84615 19.5323 8.84615 19.9996H10.8462C10.8462 18.4277 9.57189 17.1535 8 17.1535V19.1535ZM7 14.3834V18.1535H9V14.3834H7Z" fill="currentColor"></path><rect width="2" height="3.69231" rx="1" transform="matrix(1 0 0 -1 14.4614 16.3073)" fill="currentColor"></rect><rect width="2" height="3.69231" rx="1" transform="matrix(1 0 0 -1 14.4614 27.3842)" fill="currentColor"></rect><rect width="2" height="3.69231" rx="1" transform="matrix(1 0 0 -1 14.4614 21.8458)" fill="currentColor"></rect></svg>