<svg width="26" height="26" viewBox="0 0 26 26" fill="none" xmlns="http://www.w3.org/2000/svg" class="header_icon__8SHkt"><path fill-rule="evenodd" clip-rule="evenodd" d="M23.611 7.11908C23.8044 7.26028 23.9188 7.48537 23.9188 7.72486V17.9768C23.9188 18.2163 23.8044 18.4413 23.611 18.5826C23.4176 18.7238 23.1683 18.7641 22.9402 18.6911L18.5714 17.2931C18.2608 17.1937 18.05 16.9049 18.05 16.5788V9.12285C18.05 8.79669 18.2608 8.50793 18.5714 8.40853L22.9402 7.01054C23.1683 6.93755 23.4176 6.97788 23.611 7.11908ZM19.55 9.67032V16.0313L22.4188 16.9493V8.75232L19.55 9.67032Z" fill="currentColor"></path><path d="M9.9909 10.7164L13.5364 12.7634L9.9909 14.8103V10.7164ZM9.81362 14.9127C9.81369 14.9126 9.81376 14.9126 9.81384 14.9125L9.81362 14.9127Z" fill="currentColor" stroke="currentColor" stroke-width="1.18182"></path><rect x="3.65" y="4.88635" width="15.0455" height="15.8727" rx="3.97727" stroke="currentColor" stroke-width="1.5"></rect></svg>