<svg width="40" height="40" viewBox="0 0 40 40" fill="none" xmlns="http://www.w3.org/2000/svg"><path d="M26.6766 25.3391L27.2764 24.539C26.9733 24.3118 26.568 24.2754 26.2292 24.4448C25.8905 24.6142 25.6766 24.9604 25.6766 25.3391H26.6766ZM29.1237 27.1735L29.7235 26.3733H29.7235L29.1237 27.1735ZM29.1237 12.8271L28.5239 12.027V12.027L29.1237 12.8271ZM26.6766 14.6615H25.6766C25.6766 15.0402 25.8905 15.3864 26.2292 15.5558C26.568 15.7253 26.9733 15.6888 27.2764 15.4616L26.6766 14.6615ZM10.3318 14.2735C10.3318 12.8305 11.5016 11.6606 12.9447 11.6606V9.66064C10.3971 9.66064 8.33179 11.7259 8.33179 14.2735H10.3318ZM10.3318 25.7267V14.2735H8.33179V25.7267H10.3318ZM12.9447 28.3396C11.5016 28.3396 10.3318 27.1698 10.3318 25.7267H8.33179C8.33179 28.2744 10.3971 30.3396 12.9447 30.3396V28.3396ZM23.0637 28.3396H12.9447V30.3396H23.0637V28.3396ZM25.6766 25.7267C25.6766 27.1698 24.5067 28.3396 23.0637 28.3396V30.3396C25.6113 30.3396 27.6766 28.2744 27.6766 25.7267H25.6766ZM25.6766 25.3391V25.7267H27.6766V25.3391H25.6766ZM26.0768 26.1393L28.5239 27.9737L29.7235 26.3733L27.2764 24.539L26.0768 26.1393ZM28.5239 27.9737C30.3741 29.3606 33.0136 28.0404 33.0136 25.7281H31.0136C31.0136 26.3925 30.2551 26.7719 29.7235 26.3733L28.5239 27.9737ZM33.0136 25.7281V14.2726H31.0136V25.7281H33.0136ZM33.0136 14.2726C33.0136 11.9602 30.3741 10.6401 28.5239 12.027L29.7235 13.6273C30.2551 13.2287 31.0136 13.6081 31.0136 14.2726H33.0136ZM28.5239 12.027L26.0768 13.8613L27.2764 15.4616L29.7235 13.6273L28.5239 12.027ZM25.6766 14.2735V14.6615H27.6766V14.2735H25.6766ZM23.0637 11.6606C24.5067 11.6606 25.6766 12.8305 25.6766 14.2735H27.6766C27.6766 11.7259 25.6113 9.66064 23.0637 9.66064V11.6606ZM12.9447 11.6606H23.0637V9.66064H12.9447V11.6606Z" fill="white"></path></svg>