<svg width="30" height="30" viewBox="0 0 30 30" fill="none" xmlns="http://www.w3.org/2000/svg" class="popup_icon_close__BfB2v"><path fill-rule="evenodd" clip-rule="evenodd" d="M7.79289 7.79289C8.18342 7.40237 8.81658 7.40237 9.20711 7.79289L22.2071 20.7929C22.5976 21.1834 22.5976 21.8166 22.2071 22.2071C21.8166 22.5976 21.1834 22.5976 20.7929 22.2071L7.79289 9.20711C7.40237 8.81658 7.40237 8.18342 7.79289 7.79289Z" fill="#2E3033"></path><path fill-rule="evenodd" clip-rule="evenodd" d="M7.79289 22.2071C7.40237 21.8166 7.40237 21.1834 7.79289 20.7929L20.7929 7.79289C21.1834 7.40237 21.8166 7.40237 22.2071 7.79289C22.5976 8.18342 22.5976 8.81658 22.2071 9.20711L9.20711 22.2071C8.81658 22.5976 8.18342 22.5976 7.79289 22.2071Z" fill="#2E3033"></path></svg>