<svg width="20" height="20" viewBox="0 0 20 20" fill="none" xmlns="http://www.w3.org/2000/svg" class="navigation_icon_menu__yN8oe"><path fill-rule="evenodd" clip-rule="evenodd" d="M7.5 3L7.5 17H6L6 3H7.5Z" fill="currentColor"></path><path fill-rule="evenodd" clip-rule="evenodd" d="M17 8.5L7 8.5L7 7L17 7L17 8.5Z" fill="currentColor"></path><path fill-rule="evenodd" clip-rule="evenodd" d="M2.25 6C2.25 3.92893 3.92893 2.25 6 2.25H14C16.0711 2.25 17.75 3.92893 17.75 6V14C17.75 16.0711 16.0711 17.75 14 17.75H6C3.92893 17.75 2.25 16.0711 2.25 14V6ZM6 3.75C4.75736 3.75 3.75 4.75736 3.75 6V14C3.75 15.2426 4.75736 16.25 6 16.25H14C15.2426 16.25 16.25 15.2426 16.25 14V6C16.25 4.75736 15.2426 3.75 14 3.75H6Z" fill="currentColor"></path></svg>