<svg width="12" height="13" viewBox="0 0 12 13" fill="none" xmlns="http://www.w3.org/2000/svg" class="form_icon__lv0Dr"><path fill-rule="evenodd" clip-rule="evenodd" d="M6 11.5769C8.80391 11.5769 11.0769 9.30391 11.0769 6.5C11.0769 3.69609 8.80391 1.42308 6 1.42308C3.19609 1.42308 0.923077 3.69609 0.923077 6.5C0.923077 9.30391 3.19609 11.5769 6 11.5769ZM6 12.5C9.31371 12.5 12 9.81371 12 6.5C12 3.18629 9.31371 0.5 6 0.5C2.68629 0.5 0 3.18629 0 6.5C0 9.81371 2.68629 12.5 6 12.5Z" fill="#FF393E"></path><rect x="5.40002" y="3.5" width="1.2" height="4" rx="0.6" fill="#FF393E"></rect><circle cx="6.00002" cy="8.6" r="0.6" fill="#FF393E"></circle></svg>