<svg width="85" height="113" viewBox="0 0 85 113" fill="none" xmlns="http://www.w3.org/2000/svg"><g id="ico_lock_gy_h113"><path id="Rectangle 17221" d="M4 52C4 46.4772 8.47715 42 14 42H71C76.5228 42 81 46.4772 81 52V70.5C81 91.763 63.763 109 42.5 109V109C21.237 109 4 91.763 4 70.5V52Z" stroke="#AEB4C2" stroke-width="7"></path><path id="Rectangle 17222" d="M63 42L22 42L22 24.5C22 13.1782 31.1782 4 42.5 4V4C53.8218 4 63 13.1782 63 24.5L63 42Z" stroke="#AEB4C2" stroke-width="7"></path><path id="Union" fill-rule="evenodd" clip-rule="evenodd" d="M46 74.135C48.3789 72.8775 50 70.378 50 67.5C50 63.3579 46.6421 60 42.5 60C38.3579 60 35 63.3579 35 67.5C35 70.378 36.6211 72.8775 39 74.135V84.5C39 86.433 40.567 88 42.5 88C44.433 88 46 86.433 46 84.5V74.135Z" fill="#AEB4C2"></path></g></svg>