<svg width="18" height="18" viewBox="0 0 18 18" fill="currentColor" xmlns="http://www.w3.org/2000/svg" class="profile_layer_icon__rT5CQ"><path fill-rule="evenodd" clip-rule="evenodd" d="M6.9999 3.5999C5.67442 3.5999 4.5999 4.67442 4.5999 5.9999V11.9999C4.5999 13.3254 5.67442 14.3999 6.9999 14.3999H9.9999C10.3313 14.3999 10.5999 14.6685 10.5999 14.9999C10.5999 15.3313 10.3313 15.5999 9.9999 15.5999H6.9999C5.01168 15.5999 3.3999 13.9881 3.3999 11.9999V5.9999C3.3999 4.01168 5.01168 2.3999 6.9999 2.3999H9.9999C10.3313 2.3999 10.5999 2.66853 10.5999 2.9999C10.5999 3.33127 10.3313 3.5999 9.9999 3.5999H6.9999Z" fill="currentColor"></path><path fill-rule="evenodd" clip-rule="evenodd" d="M11.5756 6.07564C11.81 5.84132 12.1899 5.84132 12.4242 6.07564L14.9242 8.57564C15.1585 8.80995 15.1585 9.18985 14.9242 9.42417L12.4242 11.9242C12.1899 12.1585 11.81 12.1585 11.5756 11.9242C11.3413 11.6899 11.3413 11.31 11.5756 11.0756L13.6514 8.9999L11.5756 6.92417C11.3413 6.68985 11.3413 6.30995 11.5756 6.07564Z" fill="currentColor"></path><path fill-rule="evenodd" clip-rule="evenodd" d="M6.3999 8.9999C6.3999 8.66853 6.66853 8.3999 6.9999 8.3999H13.9999C14.3313 8.3999 14.5999 8.66853 14.5999 8.9999C14.5999 9.33127 14.3313 9.5999 13.9999 9.5999H6.9999C6.66853 9.5999 6.3999 9.33127 6.3999 8.9999Z" fill="currentColor"></path></svg>