<svg width="18" height="18" viewBox="0 0 18 18" fill="none" xmlns="http://www.w3.org/2000/svg" class="profile_layer_icon__rT5CQ"><path fill-rule="evenodd" clip-rule="evenodd" d="M8.54451 2.46833C8.80665 2.24363 9.19347 2.24363 9.45562 2.46833L16.4556 8.46833C16.7491 8.71992 16.7831 9.16183 16.5315 9.45536C16.2799 9.74889 15.838 9.78288 15.5445 9.53128L9.00006 3.92176L2.45562 9.53128C2.16209 9.78288 1.72018 9.74889 1.46858 9.45536C1.21699 9.16183 1.25098 8.71992 1.54451 8.46833L8.54451 2.46833Z" fill="currentColor"></path><path fill-rule="evenodd" clip-rule="evenodd" d="M4.20005 8V12C4.20005 13.2703 5.22979 14.3 6.50005 14.3H11.5C12.7703 14.3 13.8 13.2703 13.8 12V8H15.2V12C15.2 14.0435 13.5435 15.7 11.5 15.7H6.50005C4.45659 15.7 2.80005 14.0435 2.80005 12V8H4.20005Z" fill="currentColor"></path></svg>