<svg width="62" height="63" viewBox="0 0 62 63" fill="none" xmlns="http://www.w3.org/2000/svg"><g filter="url(#filter0_dii_1706_147)"><rect x="4" y="19" width="54" height="39" rx="5" fill="#667B8C"></rect></g><g opacity="0.8" filter="url(#filter1_d_1706_147)"><circle cx="11.5" cy="29.5" r="2.5" fill="white"></circle></g><g opacity="0.8" filter="url(#filter2_d_1706_147)"><circle cx="50.5" cy="29.5" r="2.5" fill="white"></circle></g><g opacity="0.8" filter="url(#filter3_d_1706_147)"><circle cx="16.5" cy="39.5" r="2.5" fill="white"></circle></g><g opacity="0.8" filter="url(#filter4_d_1706_147)"><circle cx="26.5" cy="39.5" r="2.5" fill="white"></circle></g><g opacity="0.8" filter="url(#filter5_d_1706_147)"><circle cx="36.5" cy="39.5" r="2.5" fill="white"></circle></g><g opacity="0.8" filter="url(#filter6_d_1706_147)"><circle cx="46.5" cy="39.5" r="2.5" fill="white"></circle></g><g filter="url(#filter7_di_1706_147)"><rect x="13" y="48" width="38" height="4" rx="2" fill="white"></rect></g><circle cx="30.5" cy="13.5" r="10.5" fill="white"></circle><g filter="url(#filter8_dii_1706_147)"><path d="M31.0069 14.8263C29.7368 14.8263 28.5473 15.3189 27.6467 16.2193C26.7504 17.1197 26.2534 18.3089 26.2534 19.5787C26.2534 20.8486 26.7504 22.0378 27.6467 22.9382C28.5473 23.8343 29.7368 24.3312 31.0069 24.3312C32.2771 24.3312 33.4665 23.8343 34.3671 22.9382C35.2634 22.0378 35.7604 20.8486 35.7604 19.5787C35.7604 18.3089 35.2634 17.1197 34.3671 16.2193C33.9272 15.7762 33.4037 15.4248 32.8268 15.1857C32.25 14.9465 31.6314 14.8244 31.0069 14.8263ZM48.5214 24.8281L45.7432 22.454C45.8749 21.6471 45.9429 20.8231 45.9429 20.0034C45.9429 19.1838 45.8749 18.3556 45.7432 17.5529L48.5214 15.1788C48.7313 14.9992 48.8815 14.7599 48.9521 14.4929C49.0226 14.2258 49.0102 13.9436 48.9165 13.6838L48.8783 13.5734C48.1137 11.4358 46.968 9.45442 45.4968 7.72521L45.4204 7.63602C45.2417 7.42601 45.0036 7.27505 44.7375 7.20302C44.4713 7.131 44.1895 7.14129 43.9293 7.23255L40.48 8.45995C39.2056 7.41517 37.7867 6.59125 36.2489 6.01789L35.582 2.41215C35.5317 2.14051 35.3999 1.89062 35.2041 1.69566C35.0084 1.5007 34.7579 1.3699 34.486 1.32065L34.3713 1.29942C32.1624 0.900194 29.8345 0.900194 27.6255 1.29942L27.5108 1.32065C27.2389 1.3699 26.9885 1.5007 26.7927 1.69566C26.5969 1.89062 26.4651 2.14051 26.4148 2.41215L25.7436 6.03488C24.2204 6.6128 22.8014 7.43474 21.5424 8.46844L18.0675 7.23255C17.8074 7.14057 17.5254 7.1299 17.2591 7.20197C16.9927 7.27404 16.7547 7.42543 16.5764 7.63602L16.5 7.72521C15.0314 9.45627 13.8861 11.4372 13.1186 13.5734L13.0803 13.6838C12.8892 14.2147 13.0464 14.8093 13.4754 15.1788L16.2876 17.5784C16.1559 18.3768 16.0922 19.1923 16.0922 19.9992C16.0922 20.8146 16.1559 21.6301 16.2876 22.42L13.4839 24.8196C13.274 24.9992 13.1238 25.2385 13.0532 25.5055C12.9827 25.7726 12.9951 26.0547 13.0888 26.3146L13.1271 26.425C13.896 28.5613 15.0302 30.5361 16.5085 32.2732L16.5849 32.3624C16.7636 32.5724 17.0017 32.7233 17.2679 32.7954C17.534 32.8674 17.8158 32.8571 18.076 32.7658L21.5509 31.5299C22.8168 32.5705 24.2271 33.3944 25.7521 33.9635L26.4233 37.5862C26.4736 37.8579 26.6054 38.1078 26.8012 38.3027C26.997 38.4977 27.2474 38.6285 27.5193 38.6777L27.634 38.699C29.8647 39.1003 32.1491 39.1003 34.3798 38.699L34.4945 38.6777C34.7664 38.6285 35.0169 38.4977 35.2126 38.3027C35.4084 38.1078 35.5402 37.8579 35.5905 37.5862L36.2574 33.9805C37.7952 33.4029 39.2141 32.5832 40.4885 31.5384L43.9378 32.7658C44.198 32.8578 44.4799 32.8685 44.7462 32.7964C45.0126 32.7244 45.2507 32.573 45.4289 32.3624L45.5053 32.2732C46.9837 30.5276 48.1179 28.5613 48.8868 26.425L48.925 26.3146C49.1077 25.7879 48.9505 25.1976 48.5214 24.8281Z" fill="#69D5CE"></path></g><path fill-rule="evenodd" clip-rule="evenodd" d="M31 14C27.9624 14 25.5 16.4624 25.5 19.5C25.5 22.5376 27.9624 25 31 25C34.0376 25 36.5 22.5376 36.5 19.5C36.5 16.4624 34.0376 14 31 14ZM23.5 19.5C23.5 15.3579 26.8579 12 31 12C35.1421 12 38.5 15.3579 38.5 19.5C38.5 23.6421 35.1421 27 31 27C26.8579 27 23.5 23.6421 23.5 19.5Z" fill="white"></path><defs><filter id="filter0_dii_1706_147" x="0" y="16" width="62" height="47" filterUnits="userSpaceOnUse" color-interpolation-filters="sRGB"><feFlood flood-opacity="0" result="BackgroundImageFix"></feFlood><feColorMatrix in="SourceAlpha" type="matrix" values="0 0 0 0 0 0 0 0 0 0 0 0 0 0 0 0 0 0 127 0" result="hardAlpha"></feColorMatrix><feOffset dy="1"></feOffset><feGaussianBlur stdDeviation="2"></feGaussianBlur><feComposite in2="hardAlpha" operator="out"></feComposite><feColorMatrix type="matrix" values="0 0 0 0 0 0 0 0 0 0 0 0 0 0 0 0 0 0 0.25 0"></feColorMatrix><feBlend mode="normal" in2="BackgroundImageFix" result="effect1_dropShadow_1706_147"></feBlend><feBlend mode="normal" in="SourceGraphic" in2="effect1_dropShadow_1706_147" result="shape"></feBlend><feColorMatrix in="SourceAlpha" type="matrix" values="0 0 0 0 0 0 0 0 0 0 0 0 0 0 0 0 0 0 127 0" result="hardAlpha"></feColorMatrix><feOffset dx="2" dy="2"></feOffset><feGaussianBlur stdDeviation="4"></feGaussianBlur><feComposite in2="hardAlpha" operator="arithmetic" k2="-1" k3="1"></feComposite><feColorMatrix type="matrix" values="0 0 0 0 1 0 0 0 0 1 0 0 0 0 1 0 0 0 0.25 0"></feColorMatrix><feBlend mode="normal" in2="shape" result="effect2_innerShadow_1706_147"></feBlend><feColorMatrix in="SourceAlpha" type="matrix" values="0 0 0 0 0 0 0 0 0 0 0 0 0 0 0 0 0 0 127 0" result="hardAlpha"></feColorMatrix><feOffset dx="-2" dy="-2"></feOffset><feGaussianBlur stdDeviation="2"></feGaussianBlur><feComposite in2="hardAlpha" operator="arithmetic" k2="-1" k3="1"></feComposite><feColorMatrix type="matrix" values="0 0 0 0 0 0 0 0 0 0 0 0 0 0 0 0 0 0 0.25 0"></feColorMatrix><feBlend mode="normal" in2="effect2_innerShadow_1706_147" result="effect3_innerShadow_1706_147"></feBlend></filter><filter id="filter1_d_1706_147" x="7" y="25" width="9" height="9" filterUnits="userSpaceOnUse" color-interpolation-filters="sRGB"><feFlood flood-opacity="0" result="BackgroundImageFix"></feFlood><feColorMatrix in="SourceAlpha" type="matrix" values="0 0 0 0 0 0 0 0 0 0 0 0 0 0 0 0 0 0 127 0" result="hardAlpha"></feColorMatrix><feOffset></feOffset><feGaussianBlur stdDeviation="1"></feGaussianBlur><feComposite in2="hardAlpha" operator="out"></feComposite><feColorMatrix type="matrix" values="0 0 0 0 0 0 0 0 0 0 0 0 0 0 0 0 0 0 0.4 0"></feColorMatrix><feBlend mode="normal" in2="BackgroundImageFix" result="effect1_dropShadow_1706_147"></feBlend><feBlend mode="normal" in="SourceGraphic" in2="effect1_dropShadow_1706_147" result="shape"></feBlend></filter><filter id="filter2_d_1706_147" x="46" y="25" width="9" height="9" filterUnits="userSpaceOnUse" color-interpolation-filters="sRGB"><feFlood flood-opacity="0" result="BackgroundImageFix"></feFlood><feColorMatrix in="SourceAlpha" type="matrix" values="0 0 0 0 0 0 0 0 0 0 0 0 0 0 0 0 0 0 127 0" result="hardAlpha"></feColorMatrix><feOffset></feOffset><feGaussianBlur stdDeviation="1"></feGaussianBlur><feComposite in2="hardAlpha" operator="out"></feComposite><feColorMatrix type="matrix" values="0 0 0 0 0 0 0 0 0 0 0 0 0 0 0 0 0 0 0.4 0"></feColorMatrix><feBlend mode="normal" in2="BackgroundImageFix" result="effect1_dropShadow_1706_147"></feBlend><feBlend mode="normal" in="SourceGraphic" in2="effect1_dropShadow_1706_147" result="shape"></feBlend></filter><filter id="filter3_d_1706_147" x="12" y="35" width="9" height="9" filterUnits="userSpaceOnUse" color-interpolation-filters="sRGB"><feFlood flood-opacity="0" result="BackgroundImageFix"></feFlood><feColorMatrix in="SourceAlpha" type="matrix" values="0 0 0 0 0 0 0 0 0 0 0 0 0 0 0 0 0 0 127 0" result="hardAlpha"></feColorMatrix><feOffset></feOffset><feGaussianBlur stdDeviation="1"></feGaussianBlur><feComposite in2="hardAlpha" operator="out"></feComposite><feColorMatrix type="matrix" values="0 0 0 0 0 0 0 0 0 0 0 0 0 0 0 0 0 0 0.4 0"></feColorMatrix><feBlend mode="normal" in2="BackgroundImageFix" result="effect1_dropShadow_1706_147"></feBlend><feBlend mode="normal" in="SourceGraphic" in2="effect1_dropShadow_1706_147" result="shape"></feBlend></filter><filter id="filter4_d_1706_147" x="22" y="35" width="9" height="9" filterUnits="userSpaceOnUse" color-interpolation-filters="sRGB"><feFlood flood-opacity="0" result="BackgroundImageFix"></feFlood><feColorMatrix in="SourceAlpha" type="matrix" values="0 0 0 0 0 0 0 0 0 0 0 0 0 0 0 0 0 0 127 0" result="hardAlpha"></feColorMatrix><feOffset></feOffset><feGaussianBlur stdDeviation="1"></feGaussianBlur><feComposite in2="hardAlpha" operator="out"></feComposite><feColorMatrix type="matrix" values="0 0 0 0 0 0 0 0 0 0 0 0 0 0 0 0 0 0 0.4 0"></feColorMatrix><feBlend mode="normal" in2="BackgroundImageFix" result="effect1_dropShadow_1706_147"></feBlend><feBlend mode="normal" in="SourceGraphic" in2="effect1_dropShadow_1706_147" result="shape"></feBlend></filter><filter id="filter5_d_1706_147" x="32" y="35" width="9" height="9" filterUnits="userSpaceOnUse" color-interpolation-filters="sRGB"><feFlood flood-opacity="0" result="BackgroundImageFix"></feFlood><feColorMatrix in="SourceAlpha" type="matrix" values="0 0 0 0 0 0 0 0 0 0 0 0 0 0 0 0 0 0 127 0" result="hardAlpha"></feColorMatrix><feOffset></feOffset><feGaussianBlur stdDeviation="1"></feGaussianBlur><feComposite in2="hardAlpha" operator="out"></feComposite><feColorMatrix type="matrix" values="0 0 0 0 0 0 0 0 0 0 0 0 0 0 0 0 0 0 0.4 0"></feColorMatrix><feBlend mode="normal" in2="BackgroundImageFix" result="effect1_dropShadow_1706_147"></feBlend><feBlend mode="normal" in="SourceGraphic" in2="effect1_dropShadow_1706_147" result="shape"></feBlend></filter><filter id="filter6_d_1706_147" x="42" y="35" width="9" height="9" filterUnits="userSpaceOnUse" color-interpolation-filters="sRGB"><feFlood flood-opacity="0" result="BackgroundImageFix"></feFlood><feColorMatrix in="SourceAlpha" type="matrix" values="0 0 0 0 0 0 0 0 0 0 0 0 0 0 0 0 0 0 127 0" result="hardAlpha"></feColorMatrix><feOffset></feOffset><feGaussianBlur stdDeviation="1"></feGaussianBlur><feComposite in2="hardAlpha" operator="out"></feComposite><feColorMatrix type="matrix" values="0 0 0 0 0 0 0 0 0 0 0 0 0 0 0 0 0 0 0.4 0"></feColorMatrix><feBlend mode="normal" in2="BackgroundImageFix" result="effect1_dropShadow_1706_147"></feBlend><feBlend mode="normal" in="SourceGraphic" in2="effect1_dropShadow_1706_147" result="shape"></feBlend></filter><filter id="filter7_di_1706_147" x="12" y="47" width="40" height="6" filterUnits="userSpaceOnUse" color-interpolation-filters="sRGB"><feFlood flood-opacity="0" result="BackgroundImageFix"></feFlood><feColorMatrix in="SourceAlpha" type="matrix" values="0 0 0 0 0 0 0 0 0 0 0 0 0 0 0 0 0 0 127 0" result="hardAlpha"></feColorMatrix><feOffset></feOffset><feGaussianBlur stdDeviation="0.5"></feGaussianBlur><feComposite in2="hardAlpha" operator="out"></feComposite><feColorMatrix type="matrix" values="0 0 0 0 0 0 0 0 0 0 0 0 0 0 0 0 0 0 0.25 0"></feColorMatrix><feBlend mode="normal" in2="BackgroundImageFix" result="effect1_dropShadow_1706_147"></feBlend><feBlend mode="normal" in="SourceGraphic" in2="effect1_dropShadow_1706_147" result="shape"></feBlend><feColorMatrix in="SourceAlpha" type="matrix" values="0 0 0 0 0 0 0 0 0 0 0 0 0 0 0 0 0 0 127 0" result="hardAlpha"></feColorMatrix><feOffset dy="1"></feOffset><feGaussianBlur stdDeviation="0.5"></feGaussianBlur><feComposite in2="hardAlpha" operator="arithmetic" k2="-1" k3="1"></feComposite><feColorMatrix type="matrix" values="0 0 0 0 1 0 0 0 0 1 0 0 0 0 1 0 0 0 0.09 0"></feColorMatrix><feBlend mode="normal" in2="shape" result="effect2_innerShadow_1706_147"></feBlend></filter><filter id="filter8_dii_1706_147" x="9" y="-1" width="44" height="48" filterUnits="userSpaceOnUse" color-interpolation-filters="sRGB"><feFlood flood-opacity="0" result="BackgroundImageFix"></feFlood><feColorMatrix in="SourceAlpha" type="matrix" values="0 0 0 0 0 0 0 0 0 0 0 0 0 0 0 0 0 0 127 0" result="hardAlpha"></feColorMatrix><feOffset dy="4"></feOffset><feGaussianBlur stdDeviation="2"></feGaussianBlur><feComposite in2="hardAlpha" operator="out"></feComposite><feColorMatrix type="matrix" values="0 0 0 0 0 0 0 0 0 0 0 0 0 0 0 0 0 0 0.25 0"></feColorMatrix><feBlend mode="normal" in2="BackgroundImageFix" result="effect1_dropShadow_1706_147"></feBlend><feBlend mode="normal" in="SourceGraphic" in2="effect1_dropShadow_1706_147" result="shape"></feBlend><feColorMatrix in="SourceAlpha" type="matrix" values="0 0 0 0 0 0 0 0 0 0 0 0 0 0 0 0 0 0 127 0" result="hardAlpha"></feColorMatrix><feOffset dy="4"></feOffset><feGaussianBlur stdDeviation="2"></feGaussianBlur><feComposite in2="hardAlpha" operator="arithmetic" k2="-1" k3="1"></feComposite><feColorMatrix type="matrix" values="0 0 0 0 0.134896 0 0 0 0 0.875 0 0 0 0 0.858115 0 0 0 1 0"></feColorMatrix><feBlend mode="normal" in2="shape" result="effect2_innerShadow_1706_147"></feBlend><feColorMatrix in="SourceAlpha" type="matrix" values="0 0 0 0 0 0 0 0 0 0 0 0 0 0 0 0 0 0 127 0" result="hardAlpha"></feColorMatrix><feOffset dy="-2"></feOffset><feGaussianBlur stdDeviation="1"></feGaussianBlur><feComposite in2="hardAlpha" operator="arithmetic" k2="-1" k3="1"></feComposite><feColorMatrix type="matrix" values="0 0 0 0 0.172656 0 0 0 0 0.8125 0 0 0 0 0.776086 0 0 0 1 0"></feColorMatrix><feBlend mode="normal" in2="effect2_innerShadow_1706_147" result="effect3_innerShadow_1706_147"></feBlend></filter></defs></svg>