<svg width="16" height="16" viewBox="0 0 16 16" fill="none" xmlns="http://www.w3.org/2000/svg" class="text_input_icon__lJecI"><path fill-rule="evenodd" clip-rule="evenodd" d="M7.5 2.75C4.87665 2.75 2.75 4.87665 2.75 7.5C2.75 10.1234 4.87665 12.25 7.5 12.25C10.1234 12.25 12.25 10.1234 12.25 7.5C12.25 4.87665 10.1234 2.75 7.5 2.75ZM1.25 7.5C1.25 4.04822 4.04822 1.25 7.5 1.25C10.9518 1.25 13.75 4.04822 13.75 7.5C13.75 10.9518 10.9518 13.75 7.5 13.75C4.04822 13.75 1.25 10.9518 1.25 7.5Z" fill="#AEB4C2"></path><path fill-rule="evenodd" clip-rule="evenodd" d="M13.9999 15.0001L10.9999 12.0001L12.0606 10.9394L15.0606 13.9394C15.3535 14.2323 15.3535 14.7072 15.0606 15.0001C14.7677 15.2929 14.2928 15.2929 13.9999 15.0001Z" fill="#AEB4C2"></path></svg>