<svg width="20" height="20" viewBox="0 0 20 20" fill="none" xmlns="http://www.w3.org/2000/svg" class="navigation_icon_menu__yN8oe"><path fill-rule="evenodd" clip-rule="evenodd" d="M2.25 4C2.25 2.48122 3.48122 1.25 5 1.25H15C16.5188 1.25 17.75 2.48122 17.75 4V13C17.75 13.4142 17.4142 13.75 17 13.75H3C2.58579 13.75 2.25 13.4142 2.25 13V4ZM5 2.75C4.30964 2.75 3.75 3.30964 3.75 4V12.25H16.25V4C16.25 3.30964 15.6904 2.75 15 2.75H5Z" fill="currentColor"></path><path fill-rule="evenodd" clip-rule="evenodd" d="M12.3323 6.51068C13.0634 6.96763 13.0634 8.0324 12.3323 8.48935L9.53511 10.2376C8.75805 10.7232 7.75011 10.1646 7.75011 9.24824V5.75178C7.75011 4.83544 8.75806 4.27679 9.53511 4.76245L12.3323 6.51068ZM11.085 7.50001L9.25011 6.3532V8.64683L11.085 7.50001Z" fill="currentColor"></path><path fill-rule="evenodd" clip-rule="evenodd" d="M1.25 15.5833C1.25 16.2277 1.77233 16.75 2.41667 16.75H17.5833C18.2277 16.75 18.75 16.2277 18.75 15.5833V14.25C18.75 13.1454 17.8546 12.25 16.75 12.25H3.25C2.14543 12.25 1.25 13.1454 1.25 14.25V15.5833ZM2.75 15.25V14.25C2.75 13.9739 2.97386 13.75 3.25 13.75H16.75C17.0261 13.75 17.25 13.9739 17.25 14.25V15.25H2.75Z" fill="currentColor"></path><path fill-rule="evenodd" clip-rule="evenodd" d="M6.21033 15.3292C6.58081 15.5144 6.73098 15.9649 6.54574 16.3354L5.67074 18.0854C5.4855 18.4559 5.03499 18.606 4.66451 18.4208C4.29403 18.2356 4.14386 17.7851 4.3291 17.4146L5.2041 15.6646C5.38934 15.2941 5.83985 15.1439 6.21033 15.3292Z" fill="currentColor"></path><path fill-rule="evenodd" clip-rule="evenodd" d="M13.7897 15.3292C13.4192 15.5144 13.269 15.9649 13.4543 16.3354L14.3293 18.0854C14.5145 18.4559 14.965 18.606 15.3355 18.4208C15.706 18.2356 15.8561 17.7851 15.6709 17.4146L14.7959 15.6646C14.6107 15.2941 14.1602 15.1439 13.7897 15.3292Z" fill="currentColor"></path></svg>