<svg width="79" height="16" viewBox="0 0 79 16" fill="none" xmlns="http://www.w3.org/2000/svg" aria-hidden="true"><path d="M64.0938 8.063C64.0938 6.957 64.2618 5.921 64.5978 4.955C64.9338 3.989 65.4168 3.149 66.0468 2.435C66.6908 1.707 67.4678 1.147 68.3778 0.754996C69.3018 0.348996 70.3308 0.145996 71.4648 0.145996C72.5988 0.145996 73.6208 0.348996 74.5308 0.754996C75.4548 1.147 76.2388 1.707 76.8828 2.435C77.5268 3.149 78.0098 3.989 78.3318 4.955C78.6678 5.921 78.8358 6.957 78.8358 8.063C78.8358 9.141 78.6678 10.156 78.3318 11.108C78.0098 12.046 77.5268 12.872 76.8828 13.586C76.2388 14.3 75.4548 14.86 74.5308 15.266C73.6208 15.658 72.5988 15.854 71.4648 15.854C70.3308 15.854 69.3018 15.658 68.3778 15.266C67.4678 14.86 66.6908 14.307 66.0468 13.607C65.4168 12.893 64.9338 12.06 64.5978 11.108C64.2618 10.156 64.0938 9.141 64.0938 8.063ZM67.3908 8.063C67.3908 8.721 67.4678 9.351 67.6218 9.953C67.7758 10.541 68.0138 11.073 68.3358 11.549C68.6718 12.025 69.0988 12.403 69.6168 12.683C70.1348 12.949 70.7508 13.082 71.4648 13.082C72.1788 13.082 72.7948 12.942 73.3128 12.662C73.8448 12.382 74.2718 12.011 74.5938 11.549C74.9158 11.073 75.1538 10.541 75.3078 9.953C75.4618 9.351 75.5388 8.721 75.5388 8.063C75.5388 7.377 75.4618 6.726 75.3078 6.11C75.1538 5.494 74.9158 4.948 74.5938 4.472C74.2718 3.996 73.8448 3.618 73.3128 3.338C72.7948 3.058 72.1788 2.918 71.4648 2.918C70.7508 2.918 70.1278 3.058 69.5958 3.338C69.0778 3.618 68.6578 3.996 68.3358 4.472C68.0138 4.948 67.7758 5.494 67.6218 6.11C67.4678 6.726 67.3908 7.377 67.3908 8.063Z" fill="white"></path><path d="M58.5515 15.4969V0.50293H61.8485V15.4969H58.5515Z" fill="white"></path><path d="M42.9861 15.4969V0.50293H49.4541C51.4841 0.50293 53.1221 1.13993 54.3681 2.41393C55.6281 3.67393 56.2581 5.50793 56.2581 7.91593C56.2581 9.02193 56.1181 10.0369 55.8381 10.9609C55.5581 11.8709 55.1311 12.6689 54.5571 13.3549C53.9831 14.0409 53.2691 14.5729 52.4151 14.9509C51.5611 15.3149 50.5741 15.4969 49.4541 15.4969H42.9861ZM46.2831 3.27493V12.7249H49.2231C49.7271 12.7249 50.1961 12.6479 50.6301 12.4939C51.0781 12.3259 51.4771 12.0669 51.8271 11.7169C52.1771 11.3529 52.4501 10.8839 52.6461 10.3099C52.8561 9.72193 52.9611 9.02893 52.9611 8.23093C52.9611 6.62093 52.6321 5.39593 51.9741 4.55593C51.3161 3.70193 50.2031 3.27493 48.6351 3.27493H46.2831Z" fill="white"></path><path d="M40.1467 0.50293V9.82693C40.1467 11.8149 39.5867 13.3199 38.4667 14.3419C37.3607 15.3499 35.7857 15.8539 33.7417 15.8539C31.6977 15.8539 30.1227 15.3499 29.0167 14.3419C27.9107 13.3339 27.3577 11.8289 27.3577 9.82693V0.50293H30.6547V9.82693C30.6547 10.2889 30.6897 10.7089 30.7597 11.0869C30.8437 11.4649 30.9977 11.8079 31.2217 12.1159C31.4457 12.4099 31.7607 12.6479 32.1667 12.8299C32.5867 12.9979 33.1117 13.0819 33.7417 13.0819C34.8897 13.0819 35.6947 12.8299 36.1567 12.3259C36.6187 11.8079 36.8497 10.9749 36.8497 9.82693V0.50293H40.1467Z" fill="white"></path><path d="M17.9007 15.4969V3.27493H13.4067V0.50293H25.6917V3.27493H21.1977V15.4969H17.9007Z" fill="white"></path><path d="M0 10.52H3.192C3.192 11.458 3.5 12.158 4.116 12.62C4.746 13.068 5.544 13.292 6.51 13.292C6.832 13.292 7.154 13.264 7.476 13.208C7.812 13.152 8.127 13.054 8.421 12.914C8.729 12.774 8.974 12.585 9.156 12.347C9.338 12.095 9.429 11.787 9.429 11.423C9.429 11.087 9.338 10.807 9.156 10.583C8.974 10.345 8.729 10.149 8.421 9.995C8.113 9.827 7.777 9.687 7.413 9.575C7.049 9.463 6.559 9.337 5.943 9.197C5.537 9.085 5.215 9.001 4.977 8.945C4.319 8.763 3.738 8.574 3.234 8.378C2.73 8.182 2.268 7.93 1.848 7.622C1.442 7.3 1.113 6.901 0.861 6.425C0.623 5.935 0.504 5.354 0.504 4.682C0.504 3.94 0.658 3.282 0.966 2.708C1.288 2.134 1.715 1.658 2.247 1.28C2.793 0.901995 3.395 0.621995 4.053 0.439996C4.725 0.243996 5.411 0.145996 6.111 0.145996C6.923 0.145996 7.686 0.236996 8.4 0.418995C9.128 0.600995 9.765 0.887995 10.311 1.28C10.871 1.672 11.312 2.176 11.634 2.792C11.956 3.408 12.117 4.13599 12.117 4.976H8.925C8.883 4.13599 8.596 3.548 8.064 3.212C7.546 2.876 6.846 2.708 5.964 2.708C5.348 2.708 4.816 2.848 4.368 3.128C3.92 3.408 3.696 3.835 3.696 4.409C3.696 4.703 3.752 4.941 3.864 5.123C3.976 5.291 4.172 5.445 4.452 5.585C4.732 5.711 5.103 5.844 5.565 5.984C6.027 6.124 6.783 6.327 7.833 6.593C7.875 6.593 7.987 6.621 8.169 6.677C8.211 6.691 8.253 6.698 8.295 6.698C8.799 6.824 9.261 6.964 9.681 7.118C10.101 7.272 10.542 7.51 11.004 7.832C11.466 8.14 11.851 8.567 12.159 9.113C12.467 9.645 12.621 10.289 12.621 11.045C12.621 12.473 12.075 13.635 10.983 14.531C9.891 15.413 8.358 15.854 6.384 15.854C5.53 15.854 4.718 15.749 3.948 15.539C3.192 15.329 2.513 15.007 1.911 14.573C1.323 14.125 0.854 13.565 0.504 12.893C0.168 12.207 0 11.416 0 10.52Z" fill="white"></path></svg>