<svg width="20" height="20" viewBox="0 0 20 20" fill="none" xmlns="http://www.w3.org/2000/svg" class="navigation_icon_menu__yN8oe"><path fill-rule="evenodd" clip-rule="evenodd" d="M10 3.25C8.48122 3.25 7.25 4.48122 7.25 6C7.25 7.51878 8.48122 8.75 10 8.75C11.5188 8.75 12.75 7.51878 12.75 6C12.75 4.48122 11.5188 3.25 10 3.25ZM5.75 6C5.75 3.65279 7.65279 1.75 10 1.75C12.3472 1.75 14.25 3.65279 14.25 6C14.25 8.34721 12.3472 10.25 10 10.25C7.65279 10.25 5.75 8.34721 5.75 6Z" fill="currentColor"></path><path fill-rule="evenodd" clip-rule="evenodd" d="M10 10.25C6.2225 10.25 3.25 13.0961 3.25 16.5C3.25 16.9142 2.91421 17.25 2.5 17.25C2.08579 17.25 1.75 16.9142 1.75 16.5C1.75 12.1719 5.49323 8.75 10 8.75C14.5068 8.75 18.25 12.1719 18.25 16.5C18.25 16.9142 17.9142 17.25 17.5 17.25C17.0858 17.25 16.75 16.9142 16.75 16.5C16.75 13.0961 13.7775 10.25 10 10.25Z" fill="currentColor"></path><path fill-rule="evenodd" clip-rule="evenodd" d="M15 6.75C15 6.33579 15.3358 6 15.75 6L18.25 6C18.6642 6 19 6.33579 19 6.75C19 7.16421 18.6642 7.5 18.25 7.5L15.75 7.5C15.3358 7.5 15 7.16421 15 6.75Z" fill="currentColor"></path><path fill-rule="evenodd" clip-rule="evenodd" d="M15 3.75C15 3.33579 15.3358 3 15.75 3L18.25 3C18.6642 3 19 3.33579 19 3.75C19 4.16421 18.6642 4.5 18.25 4.5L15.75 4.5C15.3358 4.5 15 4.16421 15 3.75Z" fill="currentColor"></path><path fill-rule="evenodd" clip-rule="evenodd" d="M16 9.75C16 9.33579 16.3358 9 16.75 9L18.25 9C18.6642 9 19 9.33579 19 9.75C19 10.1642 18.6642 10.5 18.25 10.5L16.75 10.5C16.3358 10.5 16 10.1642 16 9.75Z" fill="currentColor"></path></svg>