<svg
  width="74"
  height="26"
  viewBox="0 0 74 26"
  fill="none"
  xmlns="http://www.w3.org/2000/svg"
  aria-hidden="true"
>
  <path
    d="M20.8469 6.15599L18.4029 19.844H23.3025L25.7427 6.15599H20.8469Z"
    fill="currentColor"
  ></path>
  <path
    d="M27.4327 6.15599L26.7791 9.81581H32.75L24.9886 19.844H30.5573L34.7841 14.381L33.8096 19.844H38.7054L39.9274 13.0019H35.8515L41.1495 6.15599H27.4327Z"
    fill="currentColor"
  ></path>
  <path
    d="M19.157 6.15599H13.5921L16.4229 2.5H10.8581L5.56005 9.34209H11.1288L3 19.844H8.5687L12.7955 14.381L11.821 19.844H16.7168L17.9388 13.0019H13.8628L19.157 6.15599Z"
    fill="currentColor"
  ></path>
  <path
    d="M42.8394 6.15599L40.3954 19.844H45.2912L47.7352 6.15599H42.8394Z"
    fill="currentColor"
  ></path>
  <path
    d="M49.4213 6.15599L48.7716 9.81581H54.7077L46.9811 19.844H52.546L56.7225 14.423L55.7557 19.844H60.6554L61.8774 13.0019H57.8208L63.0955 6.15599H49.4213Z"
    fill="currentColor"
  ></path>
  <path
    d="M67.8328 16.1842L69.6233 6.15599H64.7275L62.2834 19.844H65.4506L64.7971 23.5H69.6968L71 16.1842H67.8328Z"
    fill="currentColor"
  ></path>
</svg>