<svg width="14" height="14" viewBox="0 0 14 14" fill="none" xmlns="http://www.w3.org/2000/svg">
<g clip-path="url(#clip0_99_38)">
<path fill-rule="evenodd" clip-rule="evenodd" d="M0.263645 1.32428C-0.0292474 1.03138 -0.0292474 0.556508 0.263645 0.263615C0.55654 -0.0292779 1.03142 -0.0292779 1.32431 0.263615L3.95292 2.89222C4.86076 2.39338 5.8929 2.04019 7 2.04019C8.53199 2.04019 9.92043 2.71648 11.0346 3.51919C12.1528 4.32481 13.038 5.28882 13.5739 5.9365L13.5784 5.94198C13.8177 6.23977 13.9437 6.61713 13.9437 7.00004C13.9437 7.38295 13.8177 7.76032 13.5784 8.0581L13.5739 8.06359C13.0853 8.65413 12.3062 9.50766 11.325 10.2643L13.7364 12.6756C14.0293 12.9685 14.0293 13.4434 13.7364 13.7363C13.4435 14.0292 12.9686 14.0292 12.6757 13.7363L0.263645 1.32428ZM9.01714 7.95645C9.15485 7.66655 9.23191 7.34226 9.23191 6.99996C9.23191 5.76732 8.23265 4.76806 7 4.76806C6.65771 4.76806 6.33341 4.84511 6.04351 4.98282L9.01714 7.95645ZM0.426082 5.9365C0.74553 5.55041 1.18912 5.05192 1.73218 4.54159L8.8362 11.6456C8.25558 11.8417 7.64033 11.9599 7 11.9599C5.46802 11.9599 4.07958 11.2836 2.96541 10.4809C1.84721 9.67528 0.961974 8.71127 0.426082 8.06359L0.421608 8.0581C0.182293 7.76032 0.0562889 7.38295 0.0562889 7.00004C0.0562889 6.61713 0.182293 6.23977 0.421608 5.94198L0.426082 5.9365Z" fill="black"/>
</g>
<defs>
<clipPath id="clip0_99_38">
<rect width="14" height="14" fill="white"/>
</clipPath>
</defs>
</svg>
