<svg width="40" height="40" viewBox="0 0 40 40" fill="none" xmlns="http://www.w3.org/2000/svg"><path d="M29.377 16.8995L28.377 16.8995L29.377 16.8995ZM22.377 9.89949V8.8995H22.377L22.377 9.89949ZM15.377 16.8995L16.377 16.8995L15.377 16.8995ZM16.2688 20.3211L16.9759 21.0282C17.2927 20.7113 17.3601 20.2224 17.1408 19.8316L16.2688 20.3211ZM10.0206 26.5693L9.31347 25.8622L10.0206 26.5693ZM19.1393 23.1074L19.6025 22.2211C19.2152 22.0187 18.7413 22.0912 18.4322 22.4003L19.1393 23.1074ZM28.377 16.8995C28.377 20.2132 25.6907 22.8995 22.377 22.8995V24.8995C26.7952 24.8995 30.377 21.3178 30.377 16.8995L28.377 16.8995ZM22.377 10.8995C25.6907 10.8995 28.377 13.5858 28.377 16.8995L30.377 16.8995C30.377 12.4812 26.7952 8.89949 22.377 8.8995V10.8995ZM16.377 16.8995C16.377 13.5858 19.0632 10.8995 22.377 10.8995L22.377 8.8995C17.9587 8.8995 14.377 12.4812 14.377 16.8995L16.377 16.8995ZM17.1408 19.8316C16.6546 18.9655 16.377 17.9664 16.377 16.8995L14.377 16.8995C14.377 18.3181 14.7471 19.6533 15.3968 20.8106L17.1408 19.8316ZM10.7277 27.2764L16.9759 21.0282L15.5616 19.614L9.31347 25.8622L10.7277 27.2764ZM10.7277 28.6906C10.3372 28.3001 10.3372 27.6669 10.7277 27.2764L9.31347 25.8622C8.1419 27.0338 8.1419 28.9332 9.31347 30.1048L10.7277 28.6906ZM12.1419 28.6906C11.7514 29.0811 11.1182 29.0811 10.7277 28.6906L9.31347 30.1048C10.485 31.2764 12.3845 31.2764 13.5561 30.1048L12.1419 28.6906ZM18.4322 22.4003L12.1419 28.6906L13.5561 30.1048L19.8464 23.8145L18.4322 22.4003ZM22.377 22.8995C21.3739 22.8995 20.4312 22.6542 19.6025 22.2211L18.6762 23.9937C19.7839 24.5726 21.0437 24.8995 22.377 24.8995V22.8995Z" fill="currentColor"></path><path d="M18.106 25.6142L17.3989 24.907L15.9847 26.3213L16.6918 27.0284L18.106 25.6142ZM17.9646 28.3012C18.3551 28.6917 18.9883 28.6917 19.3788 28.3012C19.7693 27.9106 19.7693 27.2775 19.3788 26.8869L17.9646 28.3012ZM16.6918 27.0284L17.9646 28.3012L19.3788 26.8869L18.106 25.6142L16.6918 27.0284Z" fill="currentColor"></path><path d="M15.3131 28.407L14.606 27.6999L13.1917 29.1141L13.8989 29.8212L15.3131 28.407ZM15.1716 31.094C15.5622 31.4845 16.1953 31.4845 16.5859 31.094C16.9764 30.7035 16.9764 30.0703 16.5859 29.6798L15.1716 31.094ZM13.8989 29.8212L15.1716 31.094L16.5859 29.6798L15.3131 28.407L13.8989 29.8212Z" fill="currentColor"></path><circle cx="22.3765" cy="14.9218" r="1.5" fill="currentColor"></circle></svg>