<svg focusable="false" xmlns="http://www.w3.org/2000/svg" width="36" height="36" viewBox="2 0 36 36" class="pzp-ui-icon__svg"><g fill="none" fill-rule="evenodd"><path fill="#FFF" d="M28.077 11.3c.669 0 .911.07 1.156.2.244.131.436.323.567.567.13.245.2.487.2 1.156v9.487c0 .67-.07.912-.2 1.156-.131.244-.323.436-.567.567-.245.13-.487.2-1.156.2H11.923c-.669 0-.911-.07-1.156-.2a1.363 1.363 0 0 1-.567-.567c-.13-.244-.2-.487-.2-1.156v-9.487c0-.669.07-.911.2-1.156.131-.244.323-.436.567-.567.245-.13.487-.2 1.156-.2h16.154zm-3.305 3.847a1.085 1.085 0 0 0-1.439 1.618L24.568 18l-1.235 1.235-.084.095a1.085 1.085 0 0 0 1.618 1.439l2.002-2.002.084-.095a1.085 1.085 0 0 0-.084-1.439l-2.002-2.002zm-8.005.084a1.084 1.084 0 0 0-1.534 0l-2.002 2.002-.084.095a1.085 1.085 0 0 0 .084 1.439l2.002 2.002.095.084a1.085 1.085 0 0 0 1.439-1.618L15.532 18l1.235-1.235.084-.095a1.085 1.085 0 0 0-.084-1.439z"></path></g></svg>