<svg focusable="false" xmlns="http://www.w3.org/2000/svg" width="30" height="30" viewBox="0 0 30 30" class="pzp-ui-icon__svg"><path fill="#FFF" fill-rule="evenodd" stroke="#FFF" stroke-linejoin="round" stroke-width=".5" d="M15 6.7c.61 0 1.203.063 1.775.184.097 1.587 1.442 2.844 3.088 2.844.493 0 .96-.113 1.373-.314A8.149 8.149 0 0 1 23 12.406a3.003 3.003 0 0 0-1.368 2.512c0 1.046.542 1.968 1.367 2.512a8.16 8.16 0 0 1-1.762 2.992 3.13 3.13 0 0 0-1.374-.314c-1.646 0-2.991 1.257-3.089 2.843a8.613 8.613 0 0 1-3.549.001c-.096-1.587-1.442-2.844-3.088-2.844-.493 0-.96.113-1.373.314A8.159 8.159 0 0 1 7 17.43a3.004 3.004 0 0 0 1.368-2.512 3.008 3.008 0 0 0-1.367-2.513 8.15 8.15 0 0 1 1.762-2.992c.414.202.88.315 1.374.315 1.646 0 2.991-1.257 3.089-2.843A8.523 8.523 0 0 1 15 6.7zm0 4.558a3.636 3.636 0 1 0 0 7.272 3.636 3.636 0 0 0 0-7.272z"></path></svg>