<svg width="26" height="26" viewBox="0 0 26 26" fill="none" xmlns="http://www.w3.org/2000/svg" class="header_icon__8SHkt"><g clip-path="url(#clip0_9131_73407)"><path d="M1.93173 10.0456C1.93173 8.72498 2.32016 7.94092 2.93169 7.45813C3.57996 6.94634 4.6187 6.65924 6.14537 6.65924H7.52264V13.432H6.14537C4.86785 13.432 3.81726 13.279 3.09515 12.8131C2.44483 12.3936 1.93173 11.6316 1.93173 10.0456Z" stroke="currentColor" stroke-width="1.5"></path></g><g clip-path="url(#clip1_9131_73407)"><path d="M24.0681 10.0453C24.0681 11.366 23.6797 12.15 23.0682 12.6328C22.4199 13.1446 21.3812 13.4317 19.8545 13.4317L18.4772 13.4317L18.4772 6.65897L19.8545 6.65897C21.132 6.65897 22.1826 6.81195 22.9047 7.27783C23.555 7.69739 24.0681 8.45932 24.0681 10.0453Z" stroke="currentColor" stroke-width="1.5"></path></g><path d="M10.0454 22.2857H15.9545" stroke="currentColor" stroke-width="1.5" stroke-linecap="round"></path><path d="M18.6647 5.15915H7.33526C6.55298 5.15915 5.91882 5.79331 5.91882 6.57559V12.2403C5.91882 16.1511 9.08917 19.3215 13 19.3215C16.9108 19.3215 20.0812 16.1511 20.0812 12.2403V6.57559C20.0812 5.79331 19.447 5.15915 18.6647 5.15915Z" stroke="currentColor" stroke-width="1.5"></path><defs><clipPath id="clip0_9131_73407"><rect width="4.72727" height="8.27273" fill="white" transform="translate(1.18173 5.90924)"></rect></clipPath><clipPath id="clip1_9131_73407"><rect width="4.72727" height="8.27273" fill="white" transform="translate(20.0909 5.90909)"></rect></clipPath></defs></svg>